<?xml version="1.0" encoding="UTF-8"?>
<svg xmlns="http://www.w3.org/2000/svg" xmlns:xlink="http://www.w3.org/1999/xlink" width="32px" height="32px" viewBox="0 0 32 32" version="1.1">
<g id="surface1">
<path style=" stroke:none;fill-rule:nonzero;fill:rgb(89.019608%,7.058824%,20%);fill-opacity:1;" d="M 32 16 C 32 20.417969 30.4375 24.191406 27.3125 27.3125 C 24.191406 30.4375 20.417969 32 16 32 C 11.582031 32 7.808594 30.4375 4.6875 27.3125 C 1.5625 24.191406 0 20.417969 0 16 C 0 11.582031 1.5625 7.808594 4.6875 4.6875 C 7.808594 1.5625 11.582031 0 16 0 C 20.417969 0 24.191406 1.5625 27.3125 4.6875 C 30.4375 7.808594 32 11.582031 32 16 C 32 16.1875 31.996094 16.371094 31.992188 16.558594 "/>
<path style=" stroke:none;fill-rule:nonzero;fill:rgb(62.745098%,0.784314%,15.686275%);fill-opacity:1;" d="M 8.957031 8.78125 L 13.042969 13.457031 L 12.179688 13.3125 C 11.4375 13.3125 10.789062 13.75 10.480469 14.375 L 9.457031 14.375 C 8.050781 14.375 6.90625 15.519531 6.90625 16.925781 L 6.90625 19.8125 C 5.96875 20.101562 5.289062 20.96875 5.289062 22 C 5.289062 22.585938 5.507812 23.132812 5.894531 23.550781 L 14.25 31.90625 C 14.824219 31.96875 15.40625 32 16 32 C 24.835938 32 32 24.835938 32 16 C 32 15.976562 32 16.863281 32 16.832031 L 22.929688 7.664062 "/>
<path style=" stroke:none;fill-rule:nonzero;fill:rgb(96.862745%,66.27451%,74.117647%);fill-opacity:1;" d="M 8.238281 20.414062 L 6.898438 20.414062 L 6.898438 16.929688 C 6.898438 15.523438 8.042969 14.382812 9.449219 14.382812 L 10.667969 14.382812 L 10.667969 15.71875 L 9.449219 15.71875 C 8.78125 15.71875 8.238281 16.261719 8.238281 16.929688 Z M 8.238281 20.414062 "/>
<path style=" stroke:none;fill-rule:nonzero;fill:rgb(100%,100%,100%);fill-opacity:1;" d="M 8.613281 24.039062 L 8 22.851562 C 8.320312 22.6875 8.519531 22.363281 8.519531 22.007812 C 8.519531 21.480469 8.09375 21.054688 7.570312 21.054688 C 7.042969 21.054688 6.617188 21.480469 6.617188 22.007812 C 6.617188 22.363281 6.820312 22.6875 7.136719 22.851562 L 6.523438 24.039062 C 5.761719 23.644531 5.28125 22.863281 5.28125 22.007812 C 5.28125 20.742188 6.304688 19.71875 7.570312 19.71875 C 8.832031 19.71875 9.855469 20.742188 9.855469 22.007812 C 9.851562 22.863281 9.375 23.644531 8.613281 24.039062 Z M 8.613281 24.039062 "/>
<path style=" stroke:none;fill-rule:nonzero;fill:rgb(87.843137%,30.980392%,45.882353%);fill-opacity:1;" d="M 25.101562 20.414062 L 23.761719 20.414062 L 23.761719 16.929688 C 23.761719 16.261719 23.21875 15.71875 22.550781 15.71875 L 21.332031 15.71875 L 21.332031 14.382812 L 22.550781 14.382812 C 23.957031 14.382812 25.101562 15.523438 25.101562 16.929688 Z M 25.101562 20.414062 "/>
<path style=" stroke:none;fill-rule:nonzero;fill:rgb(87.843137%,87.843137%,88.627451%);fill-opacity:1;" d="M 25.476562 24.039062 L 24.863281 22.851562 C 25.179688 22.6875 25.382812 22.363281 25.382812 22.007812 C 25.382812 21.480469 24.957031 21.054688 24.429688 21.054688 C 23.90625 21.054688 23.480469 21.480469 23.480469 22.007812 C 23.480469 22.363281 23.679688 22.6875 24 22.851562 L 23.386719 24.039062 C 22.625 23.644531 22.144531 22.863281 22.144531 22.007812 C 22.144531 20.742188 23.167969 19.71875 24.429688 19.71875 C 25.695312 19.71875 26.71875 20.742188 26.71875 22.007812 C 26.71875 22.863281 26.242188 23.644531 25.476562 24.039062 Z M 25.476562 24.039062 "/>
<path style=" stroke:none;fill-rule:nonzero;fill:rgb(96.862745%,66.27451%,74.117647%);fill-opacity:1;" d="M 14.273438 27.195312 L 13.679688 27.195312 C 12.992188 27.195312 12.4375 26.632812 12.4375 25.949219 L 12.4375 21.375 L 15.523438 21.375 L 15.523438 25.945312 C 15.519531 26.632812 14.960938 27.195312 14.273438 27.195312 Z M 14.273438 27.195312 "/>
<path style=" stroke:none;fill-rule:nonzero;fill:rgb(87.843137%,30.980392%,45.882353%);fill-opacity:1;" d="M 18.320312 27.195312 L 17.726562 27.195312 C 17.039062 27.195312 16.480469 26.632812 16.480469 25.949219 L 16.480469 21.375 L 19.5625 21.375 L 19.5625 25.945312 C 19.5625 26.632812 19.007812 27.195312 18.320312 27.195312 Z M 18.320312 27.195312 "/>
<path style=" stroke:none;fill-rule:nonzero;fill:rgb(96.862745%,66.27451%,74.117647%);fill-opacity:1;" d="M 14.050781 11.710938 L 17.957031 11.710938 L 17.957031 13.367188 L 14.050781 13.367188 Z M 14.050781 11.710938 "/>
<path style=" stroke:none;fill-rule:nonzero;fill:rgb(87.843137%,30.980392%,45.882353%);fill-opacity:1;" d="M 16 11.710938 L 17.957031 11.710938 L 17.957031 13.367188 L 16 13.367188 Z M 16 11.710938 "/>
<path style=" stroke:none;fill-rule:nonzero;fill:rgb(100%,100%,100%);fill-opacity:1;" d="M 19.820312 21.914062 L 12.179688 21.914062 C 11.136719 21.914062 10.28125 21.054688 10.28125 20.011719 L 10.28125 15.210938 C 10.28125 14.167969 11.136719 13.3125 12.179688 13.3125 L 19.820312 13.3125 C 20.863281 13.3125 21.71875 14.167969 21.71875 15.210938 L 21.71875 20.011719 C 21.71875 21.0625 20.863281 21.914062 19.820312 21.914062 Z M 19.820312 21.914062 "/>
<path style=" stroke:none;fill-rule:nonzero;fill:rgb(87.843137%,87.843137%,88.627451%);fill-opacity:1;" d="M 21.71875 15.210938 L 21.71875 20.011719 C 21.71875 21.054688 20.863281 21.914062 19.820312 21.914062 L 16 21.914062 L 16 13.320312 L 19.820312 13.320312 C 20.863281 13.320312 21.71875 14.167969 21.71875 15.210938 Z M 21.71875 15.210938 "/>
<path style=" stroke:none;fill-rule:nonzero;fill:rgb(100%,100%,100%);fill-opacity:1;" d="M 22.429688 9.351562 L 16.386719 12.460938 C 16.023438 12.648438 15.585938 12.644531 15.230469 12.4375 L 9.320312 9.09375 C 8.476562 8.617188 8.5 7.398438 9.363281 6.957031 L 15.40625 3.84375 C 15.769531 3.65625 16.207031 3.664062 16.5625 3.867188 L 22.476562 7.210938 C 23.3125 7.6875 23.289062 8.90625 22.429688 9.351562 Z M 22.429688 9.351562 "/>
<path style=" stroke:none;fill-rule:nonzero;fill:rgb(87.843137%,87.843137%,88.627451%);fill-opacity:1;" d="M 22.476562 7.210938 L 16.5625 3.867188 C 16.386719 3.769531 16.199219 3.71875 16.007812 3.710938 L 16.007812 12.585938 C 16.136719 12.570312 16.273438 12.53125 16.394531 12.460938 L 22.4375 9.351562 C 23.289062 8.90625 23.3125 7.6875 22.476562 7.210938 Z M 22.476562 7.210938 "/>
<path style=" stroke:none;fill-rule:nonzero;fill:rgb(96.862745%,66.27451%,74.117647%);fill-opacity:1;" d="M 12.320312 6.480469 L 19.679688 6.480469 L 19.679688 9.210938 L 12.320312 9.210938 Z M 12.320312 6.480469 "/>
<path style=" stroke:none;fill-rule:nonzero;fill:rgb(87.843137%,30.980392%,45.882353%);fill-opacity:1;" d="M 16 6.480469 L 19.679688 6.480469 L 19.679688 9.210938 L 16 9.210938 Z M 16 6.480469 "/>
<path style=" stroke:none;fill-rule:nonzero;fill:rgb(38.823529%,1.568627%,10.588235%);fill-opacity:1;" d="M 15.074219 7.84375 C 15.074219 8.042969 15.003906 8.214844 14.863281 8.355469 C 14.722656 8.496094 14.550781 8.570312 14.351562 8.570312 C 14.148438 8.570312 13.980469 8.496094 13.835938 8.355469 C 13.695312 8.214844 13.625 8.042969 13.625 7.84375 C 13.625 7.644531 13.695312 7.472656 13.835938 7.332031 C 13.980469 7.191406 14.148438 7.117188 14.351562 7.117188 C 14.550781 7.117188 14.722656 7.191406 14.863281 7.332031 C 15.003906 7.472656 15.074219 7.644531 15.074219 7.84375 C 15.074219 7.851562 15.074219 7.859375 15.074219 7.867188 "/>
<path style=" stroke:none;fill-rule:nonzero;fill:rgb(38.823529%,1.568627%,10.588235%);fill-opacity:1;" d="M 18.382812 7.84375 C 18.382812 8.042969 18.308594 8.214844 18.167969 8.355469 C 18.027344 8.496094 17.855469 8.570312 17.65625 8.570312 C 17.457031 8.570312 17.285156 8.496094 17.144531 8.355469 C 17.003906 8.214844 16.929688 8.042969 16.929688 7.84375 C 16.929688 7.644531 17.003906 7.472656 17.144531 7.332031 C 17.285156 7.191406 17.457031 7.117188 17.65625 7.117188 C 17.855469 7.117188 18.027344 7.191406 18.167969 7.332031 C 18.308594 7.472656 18.382812 7.644531 18.382812 7.84375 C 18.382812 7.851562 18.382812 7.859375 18.378906 7.867188 "/>
</g>
</svg>
